# xmcd
#
# Track frame offsets:
#	150
#	18245
#	40282
#	62687
#	84965
#	102980
#	131032
#	150125
#	164697
#	177687
#	191682
#	211440
#	234247
#
# Disc length: 3393
#
# Revision: 2
# Processed by: cddbd v1.5.1PL0 Copyright (c) Steve Scherf et al.
# Submitted via: ExactAudioCopy v0.95a4
# Normalized: r1:TDELIM( - )
#
DISCID=a80d3f0d
DTITLE=Various Artist - Farm Aid Vol. 01 [CD01)
DYEAR=2000
DGENRE=Country
TTITLE0=John Mellencamp - Rain On The Scarecrow
TTITLE1=Highwaymen With Willie Nelson - City Of New Orleans
TTITLE2=Neil Young And Crazy Horse - Homegrown
TTITLE3=Dave Mathews Band - Crash Into Me
TTITLE4=Bonnie Raitt - Love Letter
TTITLE5=Neville Brothers - Yellow Moon
TTITLE6=Steve Earle and The Dukes - Copperhead Road
TTITLE7=Trisha Yearwood - Wrong Side Of Memphis
TTITLE8=Beach Boys - God Only Knows
TTITLE9=Martina McBride - Safe In The Arms Of Love
TTITLE10=Bryan Adams - Run To You
TTITLE11=John Mellencamp - Paper In Fire
TTITLE12=Neil Young - Last Of His Kind
EXTD=
EXTT0=
EXTT1=
EXTT2=
EXTT3=
EXTT4=
EXTT5=
EXTT6=
EXTT7=
EXTT8=
EXTT9=
EXTT10=
EXTT11=
EXTT12=
PLAYORDER=
